<svg xmlns="http://www.w3.org/2000/svg" viewBox="0 0 360 360" role="img" aria-label="Happy learning mascot">
  <defs>
    <linearGradient id="body" x1="0" x2="1" y1="0" y2="1">
      <stop offset="0" stop-color="#67d7ff"/>
      <stop offset="1" stop-color="#64d66e"/>
    </linearGradient>
  </defs>
  <circle cx="180" cy="180" r="150" fill="#fff3b8"/>
  <ellipse cx="180" cy="216" rx="100" ry="86" fill="url(#body)"/>
  <circle cx="135" cy="136" r="52" fill="#ff8fab"/>
  <circle cx="225" cy="136" r="52" fill="#ffd166"/>
  <circle cx="132" cy="132" r="24" fill="#fff"/>
  <circle cx="228" cy="132" r="24" fill="#fff"/>
  <circle cx="139" cy="136" r="10" fill="#24304f"/>
  <circle cx="221" cy="136" r="10" fill="#24304f"/>
  <path d="M137 202c22 29 65 29 87 0" fill="none" stroke="#24304f" stroke-width="14" stroke-linecap="round"/>
  <path d="M79 238c-32-12-44-38-35-58 12-27 50-8 55 28" fill="#ff5d8f"/>
  <path d="M281 238c32-12 44-38 35-58-12-27-50-8-55 28" fill="#64d66e"/>
  <path d="M167 56l13-28 13 28 31 4-23 21 6 31-27-15-27 15 6-31-23-21z" fill="#ffd166"/>
</svg>
